<svg width="90" height="65" viewBox="0 0 90 65" fill="none" xmlns="http://www.w3.org/2000/svg">
<path d="M16.1207 26.44C15.7687 26.44 15.4727 26.304 15.2327 26.032C15.0087 25.76 14.8967 25.312 14.8967 24.688C14.8967 24.48 14.9207 24.256 14.9687 24.016C15.0167 23.76 15.1047 23.504 15.2327 23.248C14.4327 21.264 13.7607 19.336 13.2167 17.464C12.6727 15.592 12.2087 13.632 11.8247 11.584C11.3127 12.64 10.8247 13.736 10.3607 14.872C9.9127 15.992 9.4887 17.088 9.0887 18.16C8.6887 19.232 8.3287 20.232 8.0087 21.16C7.6887 22.088 7.4087 22.888 7.1687 23.56C6.9127 24.36 6.6567 24.896 6.4007 25.168C6.1447 25.456 5.8807 25.6 5.6087 25.6C5.2407 25.6 4.9607 25.512 4.7687 25.336C4.5927 25.16 4.5047 24.848 4.5047 24.4C4.5047 24.064 4.5927 23.544 4.7687 22.84C4.9447 22.136 5.1847 21.32 5.4887 20.392C5.8087 19.464 6.1687 18.488 6.5687 17.464C6.9687 16.44 7.3927 15.44 7.8407 14.464C8.3047 13.488 8.7687 12.608 9.2327 11.824C9.6967 11.024 10.1367 10.392 10.5527 9.928C10.9847 9.448 11.3767 9.208 11.7287 9.208C12.0967 9.208 12.4087 9.28 12.6647 9.424C12.9367 9.568 13.2327 9.944 13.5527 10.552C13.7607 10.968 14.0007 11.576 14.2727 12.376C14.5447 13.16 14.8167 14.048 15.0887 15.04C15.3607 16.016 15.6247 17.024 15.8807 18.064C16.1367 19.088 16.3607 20.04 16.5527 20.92C17.1927 17.96 17.7527 15.368 18.2327 13.144C18.7127 10.904 19.0807 9.152 19.3367 7.888C19.6087 6.624 19.7527 5.96 19.7687 5.896C19.8647 5.48 19.9687 5.224 20.0807 5.128C20.1927 5.032 20.3527 4.984 20.5607 4.984C20.8487 4.984 21.1287 5.104 21.4007 5.344C21.6887 5.568 21.8327 5.88 21.8327 6.28C21.8327 6.472 21.7847 6.912 21.6887 7.6C21.6087 8.288 21.4807 9.152 21.3047 10.192C21.1447 11.216 20.9367 12.36 20.6807 13.624C20.4247 14.872 20.1287 16.176 19.7927 17.536C19.4567 18.88 19.0807 20.216 18.6647 21.544C18.2647 22.856 17.8247 24.096 17.3447 25.264C17.1687 25.712 16.9607 26.016 16.7207 26.176C16.4967 26.352 16.2967 26.44 16.1207 26.44ZM36.4495 27.472C36.0975 27.472 35.7855 27.296 35.5134 26.944C35.2574 26.592 35.1294 26.04 35.1294 25.288C35.1294 24.856 35.4654 23.608 36.1374 21.544C36.8254 19.464 37.8654 16.616 39.2574 13C38.6494 13.896 38.0015 14.76 37.3135 15.592C36.6255 16.408 35.9215 17.08 35.2015 17.608C34.4974 18.136 33.8094 18.4 33.1374 18.4C32.0654 18.4 31.2334 18.072 30.6414 17.416C30.0654 16.744 29.7774 15.712 29.7774 14.32C29.7774 12.688 29.8894 11.248 30.1134 10C30.3534 8.752 30.6174 7.776 30.9054 7.072C31.2094 6.368 31.4494 6.016 31.6254 6.016C31.8654 6.016 32.1374 6.136 32.4415 6.376C32.7614 6.6 32.9214 6.944 32.9214 7.408C32.9214 7.856 32.8174 8.496 32.6095 9.328C32.4175 10.144 32.2175 11.08 32.0094 12.136C31.8014 13.192 31.6974 14.288 31.6974 15.424C31.6974 15.76 31.7694 16.016 31.9134 16.192C32.0574 16.352 32.2414 16.432 32.4654 16.432C33.0574 16.432 33.6814 16.224 34.3375 15.808C34.9935 15.392 35.6415 14.848 36.2815 14.176C36.9214 13.488 37.5374 12.736 38.1294 11.92C38.7214 11.104 39.2575 10.296 39.7375 9.496C40.2334 8.68 40.6494 7.936 40.9855 7.264C41.4175 6.384 41.7455 5.808 41.9695 5.536C42.2095 5.248 42.4575 5.104 42.7135 5.104C43.0015 5.104 43.2655 5.248 43.5055 5.536C43.7455 5.808 43.8655 6.056 43.8655 6.28C43.8655 6.504 43.6975 6.976 43.3614 7.696C43.0255 8.416 42.5935 9.424 42.0655 10.72C41.5375 12 40.9935 13.624 40.4335 15.592C39.7455 18.04 39.1775 20.04 38.7295 21.592C38.2975 23.144 37.9375 24.344 37.6495 25.192C37.3774 26.056 37.1454 26.648 36.9534 26.968C36.7774 27.304 36.6094 27.472 36.4495 27.472ZM18.5386 57.736C18.3306 57.736 18.0586 57.592 17.7226 57.304C17.4026 57 17.0266 56.456 16.5946 55.672C16.2266 54.968 15.8906 54.232 15.5866 53.464C15.2826 52.696 14.9866 51.912 14.6986 51.112C13.8026 52.264 12.9546 53.368 12.1546 54.424C11.3706 55.48 10.6906 56.408 10.1146 57.208C9.55461 57.992 9.17061 58.576 8.96261 58.96C8.88261 59.12 8.75461 59.296 8.57861 59.488C8.40261 59.68 8.20261 59.776 7.97861 59.776C7.72261 59.776 7.50661 59.68 7.33061 59.488C7.17061 59.296 7.09061 59.048 7.09061 58.744C7.09061 58.424 7.28261 57.928 7.66661 57.256C8.06661 56.568 8.58661 55.768 9.22661 54.856C9.88261 53.944 10.6106 52.96 11.4106 51.904C12.2266 50.848 13.0506 49.792 13.8826 48.736C13.5306 47.632 13.2026 46.568 12.8986 45.544C12.6106 44.504 12.3626 43.552 12.1546 42.688C11.9466 41.808 11.7866 41.072 11.6746 40.48C11.5626 39.888 11.5066 39.488 11.5066 39.28C11.5066 38.88 11.5786 38.6 11.7226 38.44C11.8826 38.28 12.0906 38.2 12.3466 38.2C12.8586 38.2 13.2186 38.536 13.4266 39.208C13.5226 39.48 13.6426 39.912 13.7866 40.504C13.9306 41.096 14.1386 41.896 14.4106 42.904C14.6826 43.912 15.0426 45.176 15.4906 46.696C16.1786 45.8 16.8346 44.92 17.4586 44.056C18.0986 43.192 18.6906 42.416 19.2346 41.728C19.7786 41.024 20.2506 40.472 20.6506 40.072C21.0506 39.656 21.3626 39.448 21.5866 39.448C22.2266 39.448 22.5466 39.768 22.5466 40.408C22.5466 40.584 22.5066 40.792 22.4266 41.032C22.3466 41.272 22.2026 41.552 21.9946 41.872C21.6586 42.432 21.1786 43.088 20.5546 43.84C19.9306 44.592 19.2346 45.416 18.4666 46.312C17.7146 47.208 16.9626 48.144 16.2106 49.12C16.6746 50.496 17.1386 51.704 17.6026 52.744C18.0666 53.784 18.4506 54.656 18.7546 55.36C19.0746 56.048 19.2346 56.568 19.2346 56.92C19.2346 57.464 19.0026 57.736 18.5386 57.736ZM37.9214 57.736C37.7134 57.736 37.4414 57.592 37.1054 57.304C36.7854 57 36.4094 56.456 35.9774 55.672C35.6094 54.968 35.2734 54.232 34.9694 53.464C34.6654 52.696 34.3694 51.912 34.0814 51.112C33.1854 52.264 32.3374 53.368 31.5374 54.424C30.7534 55.48 30.0734 56.408 29.4974 57.208C28.9374 57.992 28.5534 58.576 28.3454 58.96C28.2654 59.12 28.1374 59.296 27.9614 59.488C27.7854 59.68 27.5854 59.776 27.3614 59.776C27.1054 59.776 26.8894 59.68 26.7134 59.488C26.5534 59.296 26.4734 59.048 26.4734 58.744C26.4734 58.424 26.6654 57.928 27.0494 57.256C27.4494 56.568 27.9694 55.768 28.6094 54.856C29.2654 53.944 29.9934 52.96 30.7934 51.904C31.6094 50.848 32.4334 49.792 33.2654 48.736C32.9134 47.632 32.5854 46.568 32.2814 45.544C31.9934 44.504 31.7454 43.552 31.5374 42.688C31.3294 41.808 31.1694 41.072 31.0574 40.48C30.9454 39.888 30.8894 39.488 30.8894 39.28C30.8894 38.88 30.9614 38.6 31.1054 38.44C31.2654 38.28 31.4734 38.2 31.7294 38.2C32.2414 38.2 32.6014 38.536 32.8094 39.208C32.9054 39.48 33.0254 39.912 33.1694 40.504C33.3134 41.096 33.5214 41.896 33.7934 42.904C34.0654 43.912 34.4254 45.176 34.8734 46.696C35.5614 45.8 36.2174 44.92 36.8414 44.056C37.4814 43.192 38.0734 42.416 38.6174 41.728C39.1614 41.024 39.6334 40.472 40.0334 40.072C40.4334 39.656 40.7454 39.448 40.9694 39.448C41.6094 39.448 41.9294 39.768 41.9294 40.408C41.9294 40.584 41.8894 40.792 41.8094 41.032C41.7294 41.272 41.5854 41.552 41.3774 41.872C41.0414 42.432 40.5614 43.088 39.9374 43.84C39.3134 44.592 38.6174 45.416 37.8494 46.312C37.0974 47.208 36.3454 48.144 35.5934 49.12C36.0574 50.496 36.5214 51.704 36.9854 52.744C37.4494 53.784 37.8334 54.656 38.1374 55.36C38.4574 56.048 38.6174 56.568 38.6174 56.92C38.6174 57.464 38.3854 57.736 37.9214 57.736Z" fill="white"/>
<path d="M73.8793 38.56C74.2313 38.56 74.5273 38.696 74.7673 38.968C74.9913 39.24 75.1033 39.688 75.1033 40.312C75.1033 40.52 75.0793 40.744 75.0313 40.984C74.9833 41.24 74.8953 41.496 74.7673 41.752C75.5673 43.736 76.2393 45.664 76.7833 47.536C77.3273 49.408 77.7913 51.368 78.1753 53.416C78.6873 52.36 79.1753 51.264 79.6393 50.128C80.0873 49.008 80.5113 47.912 80.9113 46.84C81.3113 45.768 81.6713 44.768 81.9913 43.84C82.3113 42.912 82.5913 42.112 82.8313 41.44C83.0873 40.64 83.3433 40.104 83.5993 39.832C83.8553 39.544 84.1193 39.4 84.3913 39.4C84.7593 39.4 85.0393 39.488 85.2313 39.664C85.4073 39.84 85.4953 40.152 85.4953 40.6C85.4953 40.936 85.4073 41.456 85.2313 42.16C85.0553 42.864 84.8153 43.68 84.5113 44.608C84.1913 45.536 83.8313 46.512 83.4313 47.536C83.0313 48.56 82.6073 49.56 82.1593 50.536C81.6953 51.512 81.2313 52.392 80.7673 53.176C80.3033 53.976 79.8633 54.608 79.4473 55.072C79.0153 55.552 78.6233 55.792 78.2713 55.792C77.9033 55.792 77.5913 55.72 77.3353 55.576C77.0633 55.432 76.7673 55.056 76.4473 54.448C76.2393 54.032 75.9993 53.424 75.7273 52.624C75.4553 51.84 75.1833 50.952 74.9113 49.96C74.6393 48.984 74.3753 47.976 74.1193 46.936C73.8633 45.912 73.6393 44.96 73.4473 44.08C72.8073 47.04 72.2473 49.632 71.7673 51.856C71.2873 54.096 70.9193 55.848 70.6633 57.112C70.3913 58.376 70.2473 59.04 70.2313 59.104C70.1353 59.52 70.0313 59.776 69.9193 59.872C69.8073 59.968 69.6473 60.016 69.4393 60.016C69.1513 60.016 68.8713 59.896 68.5993 59.656C68.3113 59.432 68.1673 59.12 68.1673 58.72C68.1673 58.528 68.2153 58.088 68.3113 57.4C68.3913 56.712 68.5193 55.848 68.6953 54.808C68.8553 53.784 69.0633 52.64 69.3193 51.376C69.5753 50.128 69.8713 48.824 70.2073 47.464C70.5433 46.12 70.9193 44.784 71.3353 43.456C71.7353 42.144 72.1753 40.904 72.6553 39.736C72.8313 39.288 73.0393 38.984 73.2793 38.824C73.5033 38.648 73.7033 38.56 73.8793 38.56ZM53.5505 37.528C53.9025 37.528 54.2145 37.704 54.4866 38.056C54.7426 38.408 54.8706 38.96 54.8706 39.712C54.8706 40.144 54.5346 41.392 53.8626 43.456C53.1746 45.536 52.1346 48.384 50.7426 52C51.3506 51.104 51.9985 50.24 52.6865 49.408C53.3745 48.592 54.0785 47.92 54.7985 47.392C55.5026 46.864 56.1906 46.6 56.8626 46.6C57.9346 46.6 58.7666 46.928 59.3586 47.584C59.9346 48.256 60.2226 49.288 60.2226 50.68C60.2226 52.312 60.1106 53.752 59.8866 55C59.6466 56.248 59.3826 57.224 59.0946 57.928C58.7906 58.632 58.5506 58.984 58.3746 58.984C58.1346 58.984 57.8626 58.864 57.5585 58.624C57.2386 58.4 57.0786 58.056 57.0786 57.592C57.0786 57.144 57.1826 56.504 57.3905 55.672C57.5825 54.856 57.7825 53.92 57.9906 52.864C58.1986 51.808 58.3026 50.712 58.3026 49.576C58.3026 49.24 58.2306 48.984 58.0866 48.808C57.9426 48.648 57.7586 48.568 57.5346 48.568C56.9426 48.568 56.3186 48.776 55.6625 49.192C55.0065 49.608 54.3585 50.152 53.7185 50.824C53.0786 51.512 52.4626 52.264 51.8706 53.08C51.2786 53.896 50.7425 54.704 50.2625 55.504C49.7666 56.32 49.3506 57.064 49.0145 57.736C48.5825 58.616 48.2545 59.192 48.0305 59.464C47.7905 59.752 47.5425 59.896 47.2865 59.896C46.9985 59.896 46.7345 59.752 46.4945 59.464C46.2545 59.192 46.1345 58.944 46.1345 58.72C46.1345 58.496 46.3025 58.024 46.6386 57.304C46.9745 56.584 47.4065 55.576 47.9345 54.28C48.4625 53 49.0065 51.376 49.5665 49.408C50.2545 46.96 50.8225 44.96 51.2705 43.408C51.7025 41.856 52.0625 40.656 52.3505 39.808C52.6226 38.944 52.8546 38.352 53.0466 38.032C53.2226 37.696 53.3906 37.528 53.5505 37.528ZM71.4614 7.264C71.6694 7.264 71.9414 7.408 72.2774 7.696C72.5974 8 72.9734 8.544 73.4054 9.328C73.7734 10.032 74.1094 10.768 74.4134 11.536C74.7174 12.304 75.0134 13.088 75.3014 13.888C76.1974 12.736 77.0454 11.632 77.8454 10.576C78.6294 9.52 79.3094 8.592 79.8854 7.792C80.4454 7.008 80.8294 6.424 81.0374 6.04C81.1174 5.88 81.2454 5.704 81.4214 5.512C81.5974 5.32 81.7974 5.224 82.0214 5.224C82.2774 5.224 82.4934 5.32 82.6694 5.512C82.8294 5.704 82.9094 5.952 82.9094 6.256C82.9094 6.576 82.7174 7.072 82.3334 7.744C81.9334 8.432 81.4134 9.232 80.7734 10.144C80.1174 11.056 79.3894 12.04 78.5894 13.096C77.7734 14.152 76.9494 15.208 76.1174 16.264C76.4694 17.368 76.7974 18.432 77.1014 19.456C77.3894 20.496 77.6374 21.448 77.8454 22.312C78.0534 23.192 78.2134 23.928 78.3254 24.52C78.4374 25.112 78.4934 25.512 78.4934 25.72C78.4934 26.12 78.4214 26.4 78.2774 26.56C78.1174 26.72 77.9094 26.8 77.6534 26.8C77.1414 26.8 76.7814 26.464 76.5734 25.792C76.4774 25.52 76.3574 25.088 76.2134 24.496C76.0694 23.904 75.8614 23.104 75.5894 22.096C75.3174 21.088 74.9574 19.824 74.5094 18.304C73.8214 19.2 73.1654 20.08 72.5414 20.944C71.9014 21.808 71.3094 22.584 70.7654 23.272C70.2214 23.976 69.7494 24.528 69.3494 24.928C68.9494 25.344 68.6374 25.552 68.4134 25.552C67.7734 25.552 67.4534 25.232 67.4534 24.592C67.4534 24.416 67.4934 24.208 67.5734 23.968C67.6534 23.728 67.7974 23.448 68.0054 23.128C68.3414 22.568 68.8214 21.912 69.4454 21.16C70.0694 20.408 70.7654 19.584 71.5334 18.688C72.2854 17.792 73.0374 16.856 73.7894 15.88C73.3254 14.504 72.8614 13.296 72.3974 12.256C71.9334 11.216 71.5494 10.344 71.2454 9.64C70.9254 8.952 70.7654 8.432 70.7654 8.08C70.7654 7.536 70.9974 7.264 71.4614 7.264ZM52.0786 7.264C52.2866 7.264 52.5586 7.408 52.8946 7.696C53.2146 8 53.5906 8.544 54.0226 9.328C54.3906 10.032 54.7266 10.768 55.0306 11.536C55.3346 12.304 55.6306 13.088 55.9186 13.888C56.8146 12.736 57.6626 11.632 58.4626 10.576C59.2466 9.52 59.9266 8.592 60.5026 7.792C61.0626 7.008 61.4466 6.424 61.6546 6.04C61.7346 5.88 61.8626 5.704 62.0386 5.512C62.2146 5.32 62.4146 5.224 62.6386 5.224C62.8946 5.224 63.1106 5.32 63.2866 5.512C63.4466 5.704 63.5266 5.952 63.5266 6.256C63.5266 6.576 63.3346 7.072 62.9506 7.744C62.5506 8.432 62.0306 9.232 61.3906 10.144C60.7346 11.056 60.0066 12.04 59.2066 13.096C58.3906 14.152 57.5666 15.208 56.7346 16.264C57.0866 17.368 57.4146 18.432 57.7186 19.456C58.0066 20.496 58.2546 21.448 58.4626 22.312C58.6706 23.192 58.8306 23.928 58.9426 24.52C59.0546 25.112 59.1106 25.512 59.1106 25.72C59.1106 26.12 59.0386 26.4 58.8946 26.56C58.7346 26.72 58.5266 26.8 58.2706 26.8C57.7586 26.8 57.3986 26.464 57.1906 25.792C57.0946 25.52 56.9746 25.088 56.8306 24.496C56.6866 23.904 56.4786 23.104 56.2066 22.096C55.9346 21.088 55.5746 19.824 55.1266 18.304C54.4386 19.2 53.7826 20.08 53.1586 20.944C52.5186 21.808 51.9266 22.584 51.3826 23.272C50.8386 23.976 50.3666 24.528 49.9666 24.928C49.5666 25.344 49.2546 25.552 49.0306 25.552C48.3906 25.552 48.0706 25.232 48.0706 24.592C48.0706 24.416 48.1106 24.208 48.1906 23.968C48.2706 23.728 48.4146 23.448 48.6226 23.128C48.9586 22.568 49.4386 21.912 50.0626 21.16C50.6866 20.408 51.3826 19.584 52.1506 18.688C52.9026 17.792 53.6546 16.856 54.4066 15.88C53.9426 14.504 53.4786 13.296 53.0146 12.256C52.5506 11.216 52.1666 10.344 51.8626 9.64C51.5426 8.952 51.3826 8.432 51.3826 8.08C51.3826 7.536 51.6146 7.264 52.0786 7.264Z" fill="white"/>
</svg>
